<svg xmlns="http://www.w3.org/2000/svg" viewBox="0 0 120 120" fill="none">
  <!-- Stem -->
  <path d="M60 115 C60 115 58 85 55 70 C52 55 50 50 50 50" stroke="#16a34a" stroke-width="4" stroke-linecap="round" fill="none"/>
  <path d="M60 115 C60 115 62 85 65 70 C68 55 70 50 70 50" stroke="#16a34a" stroke-width="4" stroke-linecap="round" fill="none"/>

  <!-- Left leaf/pad -->
  <path d="M20 45 C20 20 50 5 60 35 C45 15 25 25 20 45Z" fill="#22c55e"/>
  <path d="M20 45 C20 65 50 75 60 35 C45 65 25 60 20 45Z" fill="#16a34a"/>

  <!-- Right leaf/pad -->
  <path d="M100 45 C100 20 70 5 60 35 C75 15 95 25 100 45Z" fill="#22c55e"/>
  <path d="M100 45 C100 65 70 75 60 35 C75 65 95 60 100 45Z" fill="#16a34a"/>

  <!-- Teeth - left -->
  <line x1="30" y1="38" x2="42" y2="35" stroke="#15803d" stroke-width="2.5" stroke-linecap="round"/>
  <line x1="25" y1="45" x2="40" y2="40" stroke="#15803d" stroke-width="2.5" stroke-linecap="round"/>
  <line x1="28" y1="52" x2="42" y2="45" stroke="#15803d" stroke-width="2.5" stroke-linecap="round"/>

  <!-- Teeth - right -->
  <line x1="90" y1="38" x2="78" y2="35" stroke="#15803d" stroke-width="2.5" stroke-linecap="round"/>
  <line x1="95" y1="45" x2="80" y2="40" stroke="#15803d" stroke-width="2.5" stroke-linecap="round"/>
  <line x1="92" y1="52" x2="78" y2="45" stroke="#15803d" stroke-width="2.5" stroke-linecap="round"/>

  <!-- Inner mouth detail -->
  <ellipse cx="60" cy="40" rx="12" ry="8" fill="#dc2626" opacity="0.6"/>

  <!-- RSS signal waves coming from mouth -->
  <path d="M55 25 C55 20 50 18 48 22" stroke="#f97316" stroke-width="2" stroke-linecap="round" fill="none"/>
  <path d="M52 20 C52 13 45 10 42 16" stroke="#f97316" stroke-width="2" stroke-linecap="round" fill="none" opacity="0.7"/>
  <path d="M65 25 C65 20 70 18 72 22" stroke="#f97316" stroke-width="2" stroke-linecap="round" fill="none"/>
  <path d="M68 20 C68 13 75 10 78 16" stroke="#f97316" stroke-width="2" stroke-linecap="round" fill="none" opacity="0.7"/>
</svg>
